<?xml version="1.0" standalone="no"?>
<!DOCTYPE svg PUBLIC "-//W3C//DTD SVG 20010904//EN"
 "http://www.w3.org/TR/2001/REC-SVG-20010904/DTD/svg10.dtd">
<svg version="1.0" xmlns="http://www.w3.org/2000/svg"
 width="320.000000pt" height="320.000000pt" viewBox="0 0 320.000000 320.000000"
 preserveAspectRatio="xMidYMid meet">
<metadata>
Created by potrace 1.14, written by Peter Selinger 2001-2017
</metadata>
<g transform="translate(0.000000,320.000000) scale(0.100000,-0.100000)"
fill="#000000" stroke="none">
<path d="M0 1600 l0 -1600 1600 0 1600 0 0 1600 0 1600 -1600 0 -1600 0 0
-1600z m950 78 c0 -429 -3 -463 -48 -511 -37 -39 -78 -47 -245 -47 l-148 0 3
68 3 67 125 3 c98 2 128 6 142 19 17 15 18 44 18 410 l0 393 75 0 75 0 0 -402z
m715 378 c65 -30 131 -104 150 -169 34 -113 11 -249 -55 -329 -37 -45 -117
-85 -188 -94 l-54 -7 168 -168 169 -169 -90 0 -90 0 -170 170 c-160 160 -172
170 -207 170 l-38 0 0 -170 0 -170 -70 0 -70 0 0 480 0 480 248 0 c238 0 249
-1 297 -24z m975 -36 l0 -59 -256 -348 -256 -348 256 -3 256 -2 0 -70 0 -70
-355 0 -355 0 0 63 1 62 253 345 254 345 -249 3 -249 2 0 70 0 70 350 0 350 0
0 -60z"/>
<path d="M1260 1770 l0 -170 159 0 c147 0 160 2 191 23 52 34 75 82 75 152 0
45 -6 69 -24 98 -38 61 -59 67 -241 67 l-160 0 0 -170z"/>
</g>
</svg>
